<?xml version="1.0" standalone="no"?><!DOCTYPE svg PUBLIC "-//W3C//DTD SVG 1.1//EN" "http://www.w3.org/Graphics/SVG/1.1/DTD/svg11.dtd"><svg t="1716301740601" class="icon" viewBox="0 0 1024 1024" version="1.1" xmlns="http://www.w3.org/2000/svg" p-id="1475" xmlns:xlink="http://www.w3.org/1999/xlink" width="200" height="200"><path d="M732.82 868.06H274.55c-70.11 0-127.14-57.04-127.14-127.14V282.64c0-70.11 57.04-127.14 127.14-127.14h329.1c24.72 0 48.42 9.15 66.73 25.76l156.98 142.38c20.72 18.79 32.6 45.61 32.6 73.58v343.71c0 70.11-57.04 127.14-127.14 127.14zM274.55 200.5c-45.29 0-82.14 36.85-82.14 82.14v458.28c0 45.29 36.85 82.14 82.14 82.14h458.28c45.29 0 82.14-36.85 82.14-82.14V397.21c0-15.3-6.5-29.97-17.83-40.25L640.16 214.58a54.26 54.26 0 0 0-36.5-14.09H274.55z" fill="#333333" p-id="1476"></path><path d="M497 425.55H362.22c-37.3 0-67.64-30.34-67.64-67.64V155.5h270.05v202.41c0 37.3-30.34 67.64-67.64 67.64zM339.59 200.5v157.41c0 12.48 10.16 22.64 22.64 22.64h134.78c12.48 0 22.64-10.16 22.64-22.64V200.5H339.6zM724.17 868.06H290.79v-229c0-37.3 30.34-67.64 67.64-67.64h298.1c37.3 0 67.64 30.34 67.64 67.64v229z m-388.38-45h343.38v-184c0-12.48-10.16-22.64-22.64-22.64h-298.1c-12.48 0-22.64 10.16-22.64 22.64v184z" p-id="1477"></path></svg>